<?xml version="1.0" standalone="no"?>
<!DOCTYPE svg PUBLIC "-//W3C//DTD SVG 20010904//EN"
 "http://www.w3.org/TR/2001/REC-SVG-20010904/DTD/svg10.dtd">
<svg version="1.0" xmlns="http://www.w3.org/2000/svg"
 width="583.000000pt" height="188.000000pt" viewBox="0 0 583.000000 188.000000"
 preserveAspectRatio="xMidYMid meet">

<g transform="translate(0.000000,188.000000) scale(0.100000,-0.100000)"
fill="#000000" stroke="none">
<path d="M1152 1688 c-7 -32 -16 -58 -19 -58 -3 0 -30 11 -59 25 -119 56 -249
68 -378 35 -93 -24 -167 -64 -240 -131 -205 -187 -234 -510 -65 -739 l33 -45
11 50 c16 71 48 138 99 209 51 71 182 200 244 241 23 15 42 29 42 31 0 5 -89
-30 -159 -62 -29 -13 -84 -45 -123 -70 -38 -25 -72 -44 -75 -41 -3 3 0 37 7
74 31 179 162 301 334 311 80 5 157 -10 204 -38 l33 -20 -30 -44 c-17 -24 -84
-111 -149 -194 -216 -272 -265 -363 -266 -492 -1 -100 25 -148 146 -268 l94
-92 230 232 c197 200 234 243 262 300 38 77 62 178 62 258 0 111 -53 259 -120
340 -25 30 -30 32 -30 15 -1 -71 -64 -232 -125 -317 -19 -26 -32 -48 -28 -48
4 0 28 18 54 40 26 22 51 40 55 40 3 0 5 -37 2 -82 -7 -134 -31 -174 -211
-355 -83 -84 -154 -153 -158 -153 -16 0 -59 106 -59 144 1 71 45 173 160 362
61 101 131 225 155 276 49 101 88 238 83 290 -3 29 -4 26 -16 -24z"/>
<path d="M1588 903 c-53 -136 -100 -256 -104 -265 -5 -16 2 -18 73 -18 l79 0
14 43 15 42 94 0 94 0 15 -42 14 -43 80 0 c71 0 79 2 74 18 -3 9 -50 127 -104
262 l-98 245 -75 3 -74 3 -97 -248z m201 -2 c11 -36 21 -69 21 -73 0 -4 -25
-8 -56 -8 -41 0 -54 3 -51 13 3 6 16 42 28 80 13 37 26 64 30 60 3 -5 16 -37
28 -72z"/>
<path d="M3552 1049 c-51 -55 -92 -105 -89 -112 2 -7 20 -13 39 -15 l36 -3 4
-107 c5 -156 38 -192 175 -192 l68 0 0 60 0 60 -36 0 c-54 0 -69 23 -69 108
l0 72 50 0 50 0 0 55 0 55 -50 0 -50 0 0 60 c0 51 -3 60 -17 59 -10 0 -60 -45
-111 -100z"/>
<path d="M2142 1019 c-79 -40 -121 -136 -100 -232 25 -118 162 -189 274 -142
l36 15 -6 -28 c-4 -15 -16 -35 -28 -45 -28 -24 -93 -22 -118 3 -16 16 -33 20
-85 20 -69 0 -74 -4 -51 -48 35 -67 104 -104 195 -104 105 -1 168 33 202 107
16 35 19 68 19 253 l0 212 -45 0 c-30 0 -47 -5 -53 -16 -8 -14 -13 -14 -48 5
-52 28 -135 28 -192 0z m186 -125 c51 -58 12 -144 -67 -144 -50 0 -81 35 -81
89 1 84 92 118 148 55z"/>
<path d="M2670 1029 c-155 -62 -179 -287 -41 -384 36 -25 54 -30 116 -33 92
-5 152 20 196 81 44 60 40 67 -37 67 -51 0 -72 -5 -91 -20 -14 -11 -38 -20
-53 -20 -31 0 -80 34 -80 56 0 11 27 14 151 14 l151 0 -4 60 c-8 117 -93 191
-217 189 -36 0 -77 -5 -91 -10z m148 -119 c12 -12 22 -25 22 -30 0 -6 -35 -10
-80 -10 -84 0 -94 6 -60 40 27 27 89 27 118 0z"/>
<path d="M3210 1029 c-13 -6 -33 -17 -43 -26 -17 -16 -18 -15 -24 5 -5 19 -12
22 -59 22 l-54 0 0 -205 0 -205 73 0 72 0 0 129 c0 113 2 132 19 150 25 28 70
27 90 -1 13 -18 16 -51 16 -150 l0 -128 70 0 70 0 0 148 c0 169 -14 216 -72
252 -36 22 -114 26 -158 9z"/>
<path d="M3914 1010 c-147 -84 -136 -302 18 -381 49 -25 148 -25 204 0 41 19
98 79 107 112 5 17 -1 19 -60 19 -50 0 -71 -5 -90 -20 -36 -28 -88 -26 -118 5
-14 13 -25 29 -25 35 0 6 52 10 150 10 172 0 170 -1 151 84 -23 105 -104 165
-221 166 -54 0 -74 -5 -116 -30z m184 -107 l27 -28 -42 -3 c-23 -2 -63 -2 -89
0 l-46 3 22 28 c17 21 30 27 61 27 30 0 46 -7 67 -27z"/>
<path d="M4404 1022 c-137 -65 -162 -266 -45 -365 44 -37 93 -50 171 -45 85 4
141 39 176 108 35 68 33 70 -45 70 -62 0 -70 -2 -85 -24 -31 -49 -125 -38
-142 16 -18 59 -1 109 46 128 35 15 84 0 101 -31 8 -16 22 -19 80 -19 68 0 70
1 64 23 -16 52 -44 94 -84 122 -37 26 -53 30 -119 33 -59 2 -86 -2 -118 -16z"/>
<path d="M4869 1020 c-156 -82 -153 -319 5 -394 43 -20 136 -21 184 -1 24 10
38 12 40 5 2 -5 30 -10 63 -10 l59 0 0 205 0 205 -55 0 c-39 0 -57 -4 -61 -15
-5 -12 -12 -11 -42 5 -49 26 -143 26 -193 0z m182 -129 c21 -22 29 -39 29 -66
0 -27 -8 -44 -29 -66 -37 -37 -79 -38 -120 -3 -26 21 -31 33 -31 69 0 36 5 48
31 69 41 35 83 34 120 -3z"/>
<path d="M5290 825 l0 -205 70 0 70 0 0 118 c0 146 8 162 81 162 l49 0 0 66 0
66 -55 -4 c-34 -3 -62 -12 -75 -23 -18 -16 -23 -17 -30 -5 -6 8 -10 18 -10 23
0 4 -22 7 -50 7 l-50 0 0 -205z"/>
</g>
</svg>
